<?xml version="1.0" encoding="UTF-8"?>
<svg width="51px" height="51px" viewBox="0 0 51 51" version="1.1" xmlns="http://www.w3.org/2000/svg" xmlns:xlink="http://www.w3.org/1999/xlink">
    <!-- Generator: Sketch 46.2 (44496) - http://www.bohemiancoding.com/sketch -->
    <title>np_smile_996794_000000</title>
    <desc>Created with Sketch.</desc>
    <defs></defs>
    <g id="Website" stroke="none" stroke-width="1" fill="none" fill-rule="evenodd">
        <g id="Desktop" transform="translate(-747.000000, -2605.000000)" fill-rule="nonzero" fill="#18CCA4">
            <g id="features" transform="translate(162.000000, 2604.000000)">
                <g id="np_smile_996794_000000" transform="translate(585.000000, 1.000000)">
                    <path d="M25.73,50.73 C11.945051,50.73 0.73,39.514949 0.73,25.73 C0.73,11.945051 11.9424379,0.73 25.73,0.73 C39.514949,0.73 50.73,11.945051 50.73,25.73 C50.73,39.514949 39.5175621,50.73 25.73,50.73 Z M25.73,3.68793049 C13.5762242,3.68793049 3.68793049,13.5762242 3.68793049,25.73 C3.68793049,37.8837758 13.5762242,47.7720695 25.73,47.7720695 C37.8837758,47.7720695 47.7720695,37.8837758 47.7720695,25.73 C47.7720695,13.5762242 37.8837758,3.68793049 25.73,3.68793049 Z M25.7606212,40.8338673 C35.5901222,40.5021388 39.3920558,33.635017 40.055761,32.262532 C40.3441135,31.6654194 40.1297616,30.925388 39.5785792,30.6141129 C39.029951,30.3027985 38.348634,30.5324562 38.0577404,31.1295689 C37.7132539,31.8414842 34.4495617,38.098474 25.6916573,38.3943977 C17.1457989,38.6648837 13.5607454,31.4588085 13.4072309,31.1347949 C13.1214326,30.5376823 12.4451849,30.2978469 11.8914875,30.6091286 C11.33779,30.9204102 11.1208447,31.6528312 11.4041018,32.255 C11.572517,32.6096969 15.5838771,40.8465861 25.1864378,40.8465861 C25.3752672,40.8440345 25.5666508,40.8414822 25.7631363,40.8338274 L25.7606212,40.8338673 Z M19.8966286,20.8129632 C19.8966286,22.5507473 18.9677678,23.9618396 17.8245747,23.9618396 C16.6813816,23.9618396 15.7525209,22.550682 15.7525209,20.8129632 C15.7525209,19.0752443 16.6813816,17.6640868 17.8245747,17.6640868 C18.9677678,17.6640868 19.8966286,19.0752443 19.8966286,20.8129632 Z M35.8810811,20.8129632 C35.8810811,22.5507473 34.9547681,23.9618396 33.811575,23.9618396 C32.6683819,23.9618396 31.7395212,22.550682 31.7395212,20.8129632 C31.7395212,19.0752443 32.6658342,17.6640868 33.811575,17.6640868 C34.9573158,17.6640868 35.8810811,19.0752443 35.8810811,20.8129632 Z" id="Shape"></path>
                </g>
            </g>
        </g>
    </g>
</svg>