<?xml version="1.0" encoding="UTF-8"?>
<svg width="134px" height="17px" viewBox="0 0 134 17" version="1.1" xmlns="http://www.w3.org/2000/svg" xmlns:xlink="http://www.w3.org/1999/xlink">
    <!-- Generator: Sketch 46.2 (44496) - http://www.bohemiancoding.com/sketch -->
    <title>FG_LOGO_Grey</title>
    <desc>Created with Sketch.</desc>
    <defs></defs>
    <g id="Website" stroke="none" stroke-width="1" fill="none" fill-rule="evenodd">
        <g id="Desktop" transform="translate(-767.000000, -3407.000000)" fill="#C6C6C6">
            <g id="footer" transform="translate(0.000000, 3273.000000)">
                <g id="FG_LOGO_Grey" transform="translate(767.000000, 134.000000)">
                    <polyline id="Fill-1" points="6.28097848 4.52316583 5.8478813 7.1968851 10.5167758 7.1968851 9.94572918 10.7190061 5.27576527 10.7190061 4.25665018 17 0 17 2.59590964 1 12 1 11.4284187 4.52316583 6.28097848 4.52316583"></polyline>
                    <path d="M27,1 L25.6324051,9.7648855 C25.319812,11.7704835 24.9285696,13.7547074 23.1667267,15.2636132 C21.6849151,16.5450382 19.5994581,17 17.809061,17 C16.0186638,17 14.0749759,16.5450382 12.9934237,15.2636132 C11.7019733,13.7547074 11.9304067,11.7704835 12.2435008,9.7648855 L13.6110957,1 L17.5996637,1 L16.3187332,9.20661578 C16.0026334,11.23257 15.7997485,13.4447837 18.3636132,13.4447837 C20.9274779,13.4447837 21.4154037,11.23257 21.7315035,9.20661578 L23.011933,1 L27,1" id="Fill-2"></path>
                    <polyline id="Fill-3" points="34.3312154 17 30.3849759 17 32.2616827 4.52316583 29 4.52316583 29.5298995 1 40 1 39.4696048 4.52316583 36.2079221 4.52316583 34.3312154 17"></polyline>
                    <path d="M55,1 L53.6324083,9.7648855 C53.3198159,11.7704835 52.9285745,13.7547074 51.1667356,15.2636132 C49.6849275,16.5450382 47.5994754,17 45.8090824,17 C44.0181885,17 42.0745051,16.5450382 40.9929554,15.2636132 C39.702009,13.7547074 39.9304419,11.7704835 40.2435352,9.7648855 L41.6111269,1 L45.5996856,1 L44.3187581,9.20661578 C44.0026591,11.23257 43.7997746,13.4447837 46.3636333,13.4447837 C48.9274921,13.4447837 49.4154167,11.23257 49.7315158,9.20661578 L51.0119423,1 L55,1" id="Fill-4"></path>
                    <path d="M61.3065505,8.17275606 L61.6921096,8.17275606 C62.9884462,8.17275606 64.4857922,7.91834003 64.7491496,6.1776537 C65.0125069,4.43853463 63.5919734,4.18307376 62.2956368,4.18307376 L61.9105765,4.18307376 L61.3065505,8.17275606 Z M68.7025022,17 L63.7590656,17 L60.9429378,10.8464753 L60.9025364,10.8464753 L59.9708101,17 L56,17 L58.4215906,1 L64.3581038,1 C67.3762387,1 69.4377081,2.50664446 68.9204703,5.92323767 C68.5867846,8.13044046 67.122857,10.0398668 64.8937966,10.4436935 L68.7025022,17 L68.7025022,17 Z" id="Fill-5"></path>
                    <polyline id="Fill-6" points="75.7996858 4.52316583 75.3992819 7.1968851 79.8313734 7.1968851 79.3035907 10.7190061 74.8714991 10.7190061 74.4582585 13.4773566 79.1307899 13.4773566 78.6035009 17 70 17 72.3969928 1 81 1 80.472711 4.52316583 75.7996858 4.52316583"></polyline>
                    <path d="M99,7.56978382 C98.5891109,9.89558454 98.104793,11.8830302 96.3727054,13.8704758 C94.461993,16.0484414 91.9628083,17 89.2969766,17 C84.2845463,17 81.3338523,13.5956274 82.1285503,8.58484904 C82.9498077,3.40437259 87.0014137,0 92.1414331,0 C95.4202134,0 97.7241087,1.48043358 98.6260857,4.46160206 L94.4302259,6.11069263 C94.1000565,4.5880948 93.0553879,3.57355013 91.3842306,3.57355013 C88.6559063,3.57355013 86.8259135,6.17419928 86.4400215,8.60567089 C86.0478802,11.0798273 87.1295236,13.5956274 89.8583687,13.5956274 C91.6565944,13.5956274 93.1793316,12.6654112 93.6396941,10.8258007 L90.255197,10.8258007 L90.7723236,7.56978382 L99,7.56978382" id="Fill-7"></path>
                    <path d="M103.473394,8.22515157 C103.034384,10.9741564 104.758954,12.9824239 107.251398,12.9824239 C109.743841,12.9824239 112.109879,10.9741564 112.548889,8.22515157 C112.900307,6.02636414 111.175737,4.01757609 108.683294,4.01757609 C106.190326,4.01757609 103.824288,6.02636414 103.473394,8.22515157 Z M116.898602,8.20432972 C116.074606,13.3634638 111.76528,17 106.609404,17 C101.454053,17 98.3065041,13.3634638 99.1305001,8.20432972 C99.9004721,3.38303019 104.701783,0 109.325287,0 C113.947742,0 117.668574,3.38303019 116.898602,8.20432972 L116.898602,8.20432972 Z" id="Fill-8"></path>
                    <polyline id="Fill-9" points="124.521211 10.7190061 129.691867 1 134 1 125.069501 17 121.994398 17 118 1 122.308631 1 124.521211 10.7190061"></polyline>
                </g>
            </g>
        </g>
    </g>
</svg>