<?xml version="1.0" encoding="UTF-8"?>
<svg width="83px" height="50px" viewBox="0 0 83 50" version="1.1" xmlns="http://www.w3.org/2000/svg" xmlns:xlink="http://www.w3.org/1999/xlink">
    <!-- Generator: Sketch 46.2 (44496) - http://www.bohemiancoding.com/sketch -->
    <title>np_handshake_602636_000000</title>
    <desc>Created with Sketch.</desc>
    <defs></defs>
    <g id="Website" stroke="none" stroke-width="1" fill="none" fill-rule="evenodd">
        <g id="Desktop" transform="translate(-210.000000, -2606.000000)" fill-rule="nonzero" fill="#18CCA4">
            <g id="features" transform="translate(162.000000, 2604.000000)">
                <g id="np_handshake_602636_000000" transform="translate(48.000000, 2.000000)">
                    <path d="M82.9838518,20.7440953 C82.7572526,20.0288936 81.9924347,19.6323086 81.2772873,19.8589442 L71.1791171,23.0632392 C70.910026,23.148214 70.6763477,23.3146194 70.5063983,23.5376837 L65.5459588,30.0771576 C64.1367832,28.7104921 61.9380451,28.4307779 60.1854356,29.5142034 C59.6366394,29.8541024 59.1904835,30.300222 58.8435147,30.8206842 C57.4909889,28.8910554 54.8037028,28.3635323 52.824494,29.6522477 C51.8189371,30.3037207 51.1391392,31.3127672 50.9054701,32.4847387 C50.8346587,32.8458836 50.8204953,33.2070284 50.8381991,33.5681552 C49.889292,33.6035618 48.9652201,33.932835 48.2181676,34.538272 C46.808992,35.6818732 46.2956087,37.5513173 46.7807124,39.2189973 C46.1611084,39.3535429 45.5733915,39.612002 45.0776829,40.0227178 C45.0706012,40.0297985 45.0635204,40.0333398 45.0564397,40.0404206 C43.4667098,41.3645762 43.1444856,43.7226589 44.330615,45.4221535 L44.7059178,45.9567827 L39.4445544,46.7605032 C38.0070993,46.9800235 36.5873188,46.6684495 35.3976726,45.9249229 L41.2255341,42.9685274 C41.894709,42.6286285 42.1602108,41.8107864 41.8203572,41.1415934 C41.4804583,40.4724185 40.6626162,40.2069167 39.9934232,40.5467703 L39.104728,40.9964248 C38.8675058,39.4314396 38.2124889,38.2843034 37.4548134,37.4806011 L38.5382298,36.889322 C39.1967817,36.5281771 39.4410829,35.7032107 39.0799471,35.0446226 C38.7223463,34.3860707 37.8973708,34.1417695 37.2352477,34.5029053 L34.1973672,36.1563549 C34.1938259,36.1563549 34.1902855,36.1598953 34.1902855,36.1598953 L28.1889396,39.431445 C27.0736179,40.0368911 25.6503026,39.6863692 24.95283,38.6241896 C24.7510116,38.3161596 24.6837388,37.9514708 24.7687226,37.593888 C24.8501569,37.2362872 25.0696736,36.9353361 25.3847916,36.7476848 L26.5001133,36.0820448 L26.5036546,36.0785045 L35.7552499,30.5409619 C36.3996439,30.1550362 36.6085412,29.3194106 36.2226064,28.6750528 C35.8366806,28.0306589 35.001055,27.8217615 34.3566973,28.2076873 L22.7856318,35.1331051 C21.8190499,35.7102262 20.5762888,35.4269771 19.9566757,34.4887111 C19.6451017,34.0178106 19.538881,33.4548746 19.6521807,32.9025162 C19.7690243,32.3501759 20.0912213,31.8757495 20.5656477,31.5712001 L41.9611515,17.7024179 C42.2621026,17.5076875 42.6444934,17.4899765 42.9596386,17.6563901 L52.9055341,22.8540337 C54.1730398,23.5161296 55.7238853,23.385128 56.8639516,22.5247578 C57.657049,21.9228557 58.1704324,21.0483275 58.3014067,20.0604453 C58.4359523,19.0726537 58.1739492,18.0953764 57.5649591,17.3058139 L54.0030904,12.6746684 L57.525984,12.1152492 C57.9189887,12.0515186 58.3013795,11.9275978 58.6554455,11.7434814 C58.7368798,11.700994 58.8147719,11.6514277 58.8855887,11.5947779 L70.1910799,2.42475828 C70.77528,1.95031378 70.8637988,1.0934422 70.3893543,0.512804215 C69.9149098,-0.0713959158 69.0580382,-0.159914658 68.4774002,0.314529847 L57.3033366,9.37143107 C57.239606,9.39621559 57.172335,9.41391934 57.1015182,9.4245405 L51.9888947,10.2353399 C50.8841779,9.20857326 49.5104424,8.50394015 48.0057326,8.224226 L42.514235,7.20452925 C39.1364556,6.57783722 35.7162567,6.6167851 32.3489914,7.32490785 L26.51406,8.54999418 C26.3653565,8.58186039 26.209565,8.57831909 26.0644055,8.53937302 L14.6211419,0.257894529 C14.0121609,-0.181146104 13.1623864,-0.0466005164 12.7233277,0.562389575 C12.2842961,1.17137967 12.4188326,2.02114509 13.0278227,2.46020385 L24.6342377,10.8585169 C24.7227529,10.9222475 24.8218891,10.9753606 24.9245658,11.0178434 C25.6079076,11.2940135 26.3514161,11.3577423 27.0772589,11.2090388 L32.9157253,9.98395248 C35.9323055,9.35018149 38.9984657,9.31831257 42.0295483,9.87773181 L47.5210458,10.8974286 C48.8027819,11.1346508 49.9463832,11.8357308 50.7394807,12.8695674 L55.420206,18.9558427 C55.5830765,19.1682841 55.6538842,19.4302872 55.6184804,19.6922904 C55.5724526,19.9613815 55.4379079,20.1950598 55.2254756,20.3543863 C54.9209806,20.5845296 54.5067299,20.6199334 54.1668038,20.4429014 L44.2209083,15.2452578 C43.038332,14.6256538 41.6044117,14.6929175 40.4820202,15.4222862 L19.0865164,29.2874428 C18.9696727,29.3617955 18.874075,29.4609363 18.7643194,29.542367 L12.6602787,22.970988 C12.4867852,22.7833366 12.2601859,22.648791 12.0123498,22.5815182 L1.7093338,19.8411172 C0.979965112,19.6499217 0.236438497,20.0818744 0.045279346,20.8041641 C-0.145916061,21.5299888 0.286036547,22.2735244 1.00832628,22.4682185 L10.9360938,25.1095504 L17.1605041,31.8083689 C17.1003139,31.9853973 17.0330465,32.1588908 16.9940986,32.3429981 C16.7285515,33.6105039 16.9763958,34.9028449 17.6880544,35.9827264 C18.6121263,37.3848321 20.1416714,38.1495593 21.7101916,38.1495593 C21.8199472,38.1495593 21.9297119,38.1353978 22.0430115,38.1283161 C22.0819585,38.8293599 22.2873128,39.5126564 22.6838615,40.1145947 C23.6681181,41.6122347 25.3357982,42.4407723 27.0352927,42.4407723 C27.056536,42.4407723 27.0742397,42.437231 27.095483,42.437231 C27.0848609,43.2834342 27.3362402,44.1225858 27.8390096,44.8165234 C28.7808468,46.2611391 30.3528113,47.0648414 31.9744464,47.0648414 C32.1302379,47.0648414 32.2860204,47.0542194 32.4418029,47.0365165 C34.0740428,48.6509911 36.2444107,49.5503183 38.5210083,49.5503183 C38.9635839,49.5503183 39.4097035,49.5149117 39.8558593,49.4476416 L46.455518,48.4385497 C47.2344575,49.4405717 48.3957516,50 49.6066982,50 C50.1236255,50 50.6476046,49.9008583 51.1503831,49.69197 C52.0213763,49.3343692 52.7153684,48.689948 53.1472666,47.8791758 C53.7491686,48.1730479 54.4112373,48.3323743 55.0839653,48.3323743 C55.795632,48.3323743 56.5143506,48.1588809 57.1800086,47.80128 C58.1146853,47.2985106 58.8122485,46.466429 59.1874969,45.4857073 C59.4176402,45.5671417 59.6513185,45.6450338 59.8991637,45.6875257 C60.1647108,45.7370938 60.433793,45.758338 60.6993401,45.758338 C61.5986583,45.758338 62.4802292,45.4821678 63.2379772,44.9475386 C64.452368,44.0907123 65.1038862,42.7169859 65.1038862,41.3219501 C65.9784144,41.3077886 66.8281255,41.035157 67.5610382,40.5146947 L67.6353917,40.4615853 C69.5791604,39.077245 70.0501243,36.3580536 68.6798331,34.4000546 L67.238843,32.3394514 L72.4151863,25.5131935 L82.099133,22.4399634 C82.8143347,22.2239871 83.2109197,21.4592418 82.9842842,20.7440038 L82.9838518,20.7440953 Z M30.1010187,43.3151962 C30.083315,43.2868713 30.0656121,43.2620877 30.0443689,43.2373032 C29.8319276,42.9540541 29.7540409,42.6070762 29.8213136,42.2601164 C29.8885846,41.9131386 30.0904048,41.6192665 30.3948908,41.43515 L32.0093653,40.4508934 L34.9020411,38.8753033 C35.4933202,39.2435271 36.4847011,40.1817841 36.4740962,42.3344773 L32.9830171,44.1082964 C31.9597854,44.6216888 30.7205593,44.2817899 30.1009462,43.3151989 L30.1010187,43.3151962 Z M50.8593254,46.3495418 C50.7460258,46.7283886 50.4769346,47.0328837 50.1087198,47.1815872 C49.5422216,47.4152654 48.9013989,47.2276158 48.5508045,46.7248446 L46.5574559,43.867609 C46.1750651,43.3152687 46.2812858,42.5505234 46.7982131,42.1256044 C46.8017544,42.122064 46.8052948,42.1185236 46.8123765,42.1149823 C47.0920816,41.888383 47.4461475,41.7927853 47.8001681,41.8423562 C48.1117421,41.8848436 48.3843682,42.0406306 48.5897215,42.2707739 L50.8202742,45.5174883 C50.9264949,45.7794915 50.9406528,46.0698286 50.8592212,46.3495337 L50.8593254,46.3495418 Z M56.7332319,44.3136833 C56.6199322,44.7881278 56.3189812,45.1775885 55.8870286,45.4112395 C55.122256,45.8219462 54.1769292,45.5953469 53.6847555,44.8801452 L53.0722305,43.99145 C53.0155807,43.8923083 52.9766328,43.7860967 52.90936,43.690499 L50.9195464,40.8297284 C50.8912215,40.7907815 50.8558149,40.7589162 50.8274927,40.7199728 L49.5988714,38.9319232 C49.099646,38.2060986 49.2448146,37.2041491 49.9281474,36.6517907 C50.2326424,36.4039454 50.6044012,36.2729439 50.9903542,36.2729439 C51.0717885,36.2729439 51.1567596,36.2800246 51.2381994,36.2906467 C51.684319,36.3543782 52.0702447,36.5915977 52.3392906,36.9456636 L56.6588167,43.2798386 C56.7933623,43.6055796 56.8216872,43.9631804 56.7331693,44.3136751 L56.7332319,44.3136833 Z M61.6653011,42.7345582 C61.2899983,42.9965614 60.8332558,43.099238 60.383565,43.0178073 C59.9338742,42.9363766 59.5408966,42.6814524 59.2860087,42.3026056 L58.9107059,41.7502653 C58.8469744,41.6369657 58.8009503,41.5165871 58.7265985,41.4103664 L54.6372067,35.4656703 C54.6230442,35.4444271 54.5982597,35.4267234 54.5840972,35.4019388 L53.8370266,34.3079175 C53.5785584,33.9290707 53.4829607,33.4687932 53.5750235,33.0191115 C53.6670772,32.5659129 53.9290803,32.1799871 54.3114711,31.9286251 C55.0797877,31.4293997 56.1242653,31.638297 56.6376487,32.3924466 L58.8115515,35.5754414 C58.8327947,35.6073067 58.8434168,35.6427133 58.86466,35.6710391 C59.6683805,36.8571503 60.6172695,38.2521861 61.4209718,39.4276019 C61.4563784,39.47717 61.5024061,39.5196556 61.5378155,39.5692264 L62.0936907,40.3835699 C62.614162,41.1483424 62.4229666,42.199899 61.665273,42.7345827 L61.6653011,42.7345582 Z M66.0592424,38.2486176 L65.977809,38.3052675 C65.6131291,38.5672706 65.1705536,38.6664123 64.7315129,38.5849725 C64.3562101,38.5177007 64.0269342,38.3229694 63.7826058,38.0361763 L61.0598795,34.0494792 C60.8509822,33.6954224 60.7801744,33.2882507 60.8651492,32.8810427 C60.9607469,32.4384671 61.226294,32.0631643 61.6405447,31.8046961 C61.9096359,31.6382907 62.2070429,31.5603949 62.504459,31.5603949 C63.0249303,31.5603949 63.5382955,31.8082402 63.8569847,32.2649737 L66.4452017,35.9684216 C66.965673,36.7048693 66.7886446,37.7316359 66.0592759,38.2485542 L66.0592424,38.2486176 Z" id="Shape"></path>
                </g>
            </g>
        </g>
    </g>
</svg>