<?xml version="1.0" encoding="UTF-8"?>
<svg width="52px" height="52px" viewBox="0 0 52 52" version="1.1" xmlns="http://www.w3.org/2000/svg" xmlns:xlink="http://www.w3.org/1999/xlink">
    <!-- Generator: Sketch 46.2 (44496) - http://www.bohemiancoding.com/sketch -->
    <title>np_message_1052520_000000</title>
    <desc>Created with Sketch.</desc>
    <defs></defs>
    <g id="Website" stroke="none" stroke-width="1" fill="none" fill-rule="evenodd">
        <g id="Desktop" transform="translate(-486.000000, -2604.000000)" fill-rule="nonzero" fill="#18CCA4">
            <g id="features" transform="translate(162.000000, 2604.000000)">
                <g id="np_message_1052520_000000" transform="translate(324.000000, 0.000000)">
                    <path d="M46.791866,2.27723428e-15 L5.12787573,2.27723428e-15 C2.30856965,2.27723428e-15 0,2.30856965 0,5.12787573 L0,36.5361146 C0,39.3554207 2.30856965,41.6639903 5.12787573,41.6639903 L21.0249315,41.6639903 L29.2301736,50.1897247 C29.8060597,50.9583933 30.7675108,51.4065696 31.7289875,51.4065696 C32.8181483,51.4065696 33.844749,50.8306835 34.4206094,49.9317926 C34.5483064,49.7389972 34.6760033,49.4836034 34.7411017,49.2256841 L36.8568632,41.6639903 L46.7921224,41.6639903 C49.6114285,41.6639903 51.9199982,39.3554207 51.9199982,36.5361146 L51.9199982,5.12787573 C51.9199982,2.30856965 49.6114285,0 46.7921224,0 L46.791866,2.27723428e-15 Z M12.9472452,25.8970544 C10.1279392,25.8970544 7.81936951,23.5884848 7.81936951,20.7691787 C7.81936951,17.9498726 10.1279392,15.6413029 12.9472452,15.6413029 C15.7665513,15.6413029 18.075121,17.9498726 18.075121,20.7691787 C18.075121,23.5884848 15.7690512,25.8970544 12.9472452,25.8970544 Z M25.7669346,25.8970544 C22.9476285,25.8970544 20.6390588,23.5884848 20.6390588,20.7691787 C20.6390588,17.9498726 22.9476285,15.6413029 25.7669346,15.6413029 C28.5862406,15.6413029 30.8948103,17.9498726 30.8948103,20.7691787 C30.8948103,23.5884848 28.5887405,25.8970544 25.7669346,25.8970544 Z M38.5866239,25.8970544 C35.7673178,25.8970544 33.4587482,23.5884848 33.4587482,20.7691787 C33.4587482,17.9498726 35.7673178,15.6413029 38.5866239,15.6413029 C41.40593,15.6413029 43.7144996,17.9498726 43.7144996,20.7691787 C43.7144996,23.5884848 41.4084298,25.8970544 38.5866239,25.8970544 Z" id="Shape"></path>
                </g>
            </g>
        </g>
    </g>
</svg>