<?xml version="1.0" encoding="UTF-8"?>
<svg width="160px" height="130px" viewBox="0 0 160 130" version="1.1" xmlns="http://www.w3.org/2000/svg" xmlns:xlink="http://www.w3.org/1999/xlink">
    <!-- Generator: Sketch 46.2 (44496) - http://www.bohemiancoding.com/sketch -->
    <title>icons/logo</title>
    <desc>Created with Sketch.</desc>
    <defs></defs>
    <g id="Symbols" stroke="none" stroke-width="1" fill="none" fill-rule="evenodd">
        <g id="icons/logo" fill-rule="nonzero">
            <g id="Group">
                <path d="M14.588432,19.2943778 C14.588432,10.8236754 21.5297021,3.8824053 30.0004046,3.8824053 C38.471107,3.8824053 45.4123771,10.8236754 45.4123771,19.2943778 C45.4123771,27.7650803 38.471107,34.7063504 30.0004046,34.7063504 C21.5297021,34.7063504 14.588432,27.7650803 14.588432,19.2943778 Z M134.825348,31.4121883 C143.29605,31.4121883 150.23732,24.4709182 150.23732,16.0002158 C150.23732,7.5295133 143.29605,0.588243227 134.825348,0.588243227 C126.354645,0.588243227 119.413375,7.5295133 119.413375,16.0002158 C119.413375,24.4709182 126.236996,31.4121883 134.825348,31.4121883 Z M157.413887,36.1181341 C156.472698,32.4710261 152.943239,31.8827829 151.413807,33.176918 C143.29605,39.5299448 128.825267,46.8241608 114.236835,53.412485 C102.589619,58.5890254 87.4129435,61.8831875 78.5892951,63.5302685 C74.2362952,64.353809 75.648079,66.8244306 77.8834032,67.5303224 C106.354375,77.4128086 138.354807,57.1772416 138.354807,57.1772416 C138.354807,57.1772416 133.413564,107.177916 84.7070247,104.589646 C36.0004855,101.883727 33.4122153,60.5890524 33.4122153,60.5890524 C58.1184308,63.2949712 78.0010519,56.8242957 91.4129974,52.3536472 C100.001349,49.412431 104.119051,45.0594312 93.2953758,45.765323 C86.589403,46.2359176 77.6481059,46.5888636 65.7655928,46.9418095 C41.1770259,47.5300527 21.882648,40.9417286 14.8237293,38.1181611 C12.941351,37.4122692 11.5295672,38.0005124 11.1766213,40.1181881 C9.52954027,47.6477014 5.52948633,68.8244575 17.8825941,91.6482947 C33.7651612,120.70751 58.4713767,130.354699 84.8246733,129.884104 C105.648484,129.531159 133.295915,119.413375 150.472617,88.7070786 C162.590428,66.2361873 159.884509,45.6476744 157.413887,36.1181341 Z" id="Shape" fill="#18CCA4"></path>
                <path d="M24.5885669,34.823999 C15.0590266,34.823999 7.41186466,27.0591884 7.41186466,17.6472968 C7.41186466,8.23540517 15.1766753,0.470594581 24.5885669,0.470594581 C34.0004585,0.470594581 41.7652691,8.23540517 41.7652691,17.6472968 C41.7652691,27.0591884 34.0004585,34.823999 24.5885669,34.823999 Z" id="Shape" fill="#7B00D4" opacity="0.62"></path>
                <path d="M75.295133,129.884104 C45.0594312,129.884104 22.5885399,116.707456 8.47070247,90.7071056 C-0.117648645,74.8245384 -1.88237833,55.8831065 2.11767562,36.7063773 C2.5882702,34.3534044 4.11770259,33.0592693 6.2353782,33.0592693 C6.94127008,33.0592693 7.5295133,33.176918 8.23540517,33.5298639 C14.8237293,36.1181341 31.8827829,43.5299988 54.5889714,43.5299988 C55.6478093,43.5299988 56.8242957,43.5299988 57.8831335,43.5299988 C68.1185657,43.2947015 77.4128086,42.8241069 85.2952679,42.3535123 C86.1188084,42.3535123 86.8247003,42.2358637 87.5305921,42.2358637 C89.0600245,42.2358637 93.2953758,42.2358637 93.7659703,45.0594312 C94.3542136,48.4712419 88.0011867,51.0595121 84.1187814,52.3536472 C74.2362952,55.7654579 61.0596469,61.1772956 37.2946206,62.8243766 C34.0004585,63.0596739 30.7062964,62.706728 27.529783,62.353782 C28.8239181,70.7068359 35.7651882,102.001376 76.2363222,104.354348 L85.7658625,104.589646 L85.7658625,130.001753 L75.295133,130.001753 L75.295133,129.884104 Z" id="Shape" fill="#7B00D4" opacity="0.62"></path>
            </g>
        </g>
    </g>
</svg>